<svg width="20" height="20" viewBox="0 0 20 20" fill="none" xmlns="http://www.w3.org/2000/svg">
<g clip-path="url(#clip0)">
<path d="M4.38833 8.13762C4.77823 6.95799 5.53071 5.93163 6.53842 5.20495C7.54613 4.47828 8.7576 4.0884 9.99999 4.09096C11.4083 4.09096 12.6817 4.59096 13.6817 5.40929L16.5917 2.50012C14.8183 0.954289 12.5458 0.00012207 9.99999 0.00012207C6.05833 0.00012207 2.66499 2.24846 1.03333 5.54179L4.38833 8.13762Z" fill="#EA4335"/>
<path d="M13.3667 15.011C12.4583 15.5968 11.305 15.9093 9.99999 15.9093C8.76255 15.9118 7.55566 15.5251 6.55019 14.8038C5.54471 14.0825 4.79161 13.0631 4.39749 11.8901L1.03082 14.446C1.85686 16.1179 3.13521 17.5246 4.72067 18.5064C6.30614 19.4882 8.13516 20.0057 9.99999 20.0001C12.4442 20.0001 14.7792 19.131 16.5283 17.5001L13.3675 15.011H13.3667Z" fill="#34A853"/>
<path d="M16.5283 17.5001C18.3575 15.7935 19.545 13.2535 19.545 10.0001C19.545 9.40846 19.4542 8.77263 19.3183 8.18179H10V12.046H15.3633C15.0992 13.3451 14.3883 14.351 13.3675 15.011L16.5283 17.5001Z" fill="#4A90E2"/>
<path d="M4.39747 11.8901C4.1936 11.2809 4.09003 10.6426 4.09081 10.0001C4.09081 9.34845 4.19497 8.72261 4.38831 8.13761L1.03331 5.54178C0.346957 6.92735 -0.00685536 8.45388 -2.50249e-05 10.0001C-2.50249e-05 11.6001 0.370808 13.1084 1.03081 14.4459L4.39747 11.8901Z" fill="#FBBC05"/>
</g>
<defs>
<clipPath id="clip0">
<rect width="20" height="20" fill="white" transform="translate(0 0.00012207)"/>
</clipPath>
</defs>
</svg>
